<svg xmlns="http://www.w3.org/2000/svg" width="1600" height="900" viewBox="0 0 1600 900" fill="none">
  <defs>
    <linearGradient id="gDark" x1="0" y1="0" x2="1" y2="1">
      <stop offset="0" stop-color="#101820"/>
      <stop offset="1" stop-color="#0A1118"/>
    </linearGradient>
    <linearGradient id="gLight" x1="0" y1="0" x2="1" y2="1">
      <stop offset="0" stop-color="#FFFFFF"/>
      <stop offset="1" stop-color="#F5F6F6"/>
    </linearGradient>
    <filter id="soft" x="-10%" y="-10%" width="120%" height="120%">
      <feDropShadow dx="0" dy="10" stdDeviation="14" flood-color="#101820" flood-opacity=".10"/>
    </filter>
  </defs>

  <!-- technical grid -->
  <g opacity=".18" stroke="#B1B3B3" stroke-width="1">
    <path d="M980 120V820"/>
    <path d="M1060 90V840"/>
    <path d="M1140 60V860"/>
    <path d="M1220 30V880"/>
    <path d="M1300 90V840"/>
    <path d="M1380 120V810"/>
    <path d="M1460 90V840"/>
    <path d="M920 170H1520"/>
    <path d="M900 260H1540"/>
    <path d="M880 350H1560"/>
    <path d="M860 440H1580"/>
    <path d="M880 530H1560"/>
    <path d="M900 620H1540"/>
    <path d="M920 710H1520"/>
  </g>

  <!-- flow / arrows -->
  <g opacity=".72" stroke="#B1B3B3" stroke-width="3" fill="none" stroke-linecap="round" stroke-linejoin="round">
    <path d="M980 250H1080"/>
    <path d="M1080 250V330H1180"/>
    <path d="M1180 330H1280"/>
    <path d="M1280 330V230H1380"/>
    <path d="M1380 230H1460"/>
    <path d="M1020 540H1120"/>
    <path d="M1120 540V470H1220"/>
    <path d="M1220 470H1320"/>
    <path d="M1320 470V600H1440"/>
    <path d="M1440 600H1500"/>
  </g>
  <g opacity=".88" fill="#B1B3B3">
    <path d="M1096 250l-18-9v18z"/>
    <path d="M1216 330l-18-9v18z"/>
    <path d="M1376 230l-18-9v18z"/>
    <path d="M1116 540l-18-9v18z"/>
    <path d="M1316 470l-18-9v18z"/>
    <path d="M1440 600l-18-9v18z"/>
  </g>

  <!-- blocks -->
  <g filter="url(#soft)">
    <rect x="820" y="190" width="150" height="96" rx="16" fill="url(#gDark)"/>
    <rect x="1160" y="286" width="182" height="112" rx="16" fill="url(#gLight)" stroke="#E4E7E8"/>
    <rect x="1360" y="182" width="132" height="88" rx="16" fill="#101820"/>
    <rect x="1000" y="498" width="170" height="100" rx="16" fill="url(#gLight)" stroke="#E4E7E8"/>
    <rect x="1240" y="430" width="166" height="92" rx="16" fill="url(#gDark)"/>
    <rect x="1430" y="548" width="112" height="76" rx="16" fill="#101820"/>
  </g>

  <!-- inner labels / chips -->
  <g font-family="Inter, Arial, sans-serif" font-weight="700">
    <rect x="842" y="216" width="48" height="18" rx="9" fill="#D50032"/>
    <rect x="898" y="216" width="54" height="18" rx="9" fill="#B1B3B3" opacity=".45"/>
    <rect x="844" y="244" width="96" height="10" rx="5" fill="#F5F6F6" opacity=".85"/>

    <rect x="1182" y="314" width="74" height="14" rx="7" fill="#101820"/>
    <rect x="1182" y="336" width="122" height="10" rx="5" fill="#5F666A" opacity=".30"/>
    <rect x="1182" y="356" width="94" height="10" rx="5" fill="#5F666A" opacity=".20"/>

    <rect x="1380" y="204" width="66" height="14" rx="7" fill="#D50032"/>
    <rect x="1380" y="226" width="84" height="10" rx="5" fill="#F5F6F6" opacity=".80"/>

    <rect x="1024" y="524" width="88" height="16" rx="8" fill="#101820"/>
    <rect x="1024" y="548" width="120" height="10" rx="5" fill="#5F666A" opacity=".22"/>

    <rect x="1262" y="456" width="68" height="14" rx="7" fill="#D50032"/>
    <rect x="1262" y="478" width="92" height="10" rx="5" fill="#F5F6F6" opacity=".80"/>
  </g>

  <!-- red signature points -->
  <g fill="#D50032">
    <rect x="972" y="244" width="10" height="10" rx="2"/>
    <rect x="1356" y="322" width="10" height="10" rx="2"/>
    <rect x="1490" y="232" width="10" height="10" rx="2"/>
    <rect x="1398" y="584" width="10" height="10" rx="2"/>
  </g>

  <!-- abstract architectural lines -->
  <g opacity=".16" stroke="#F5F6F6" stroke-width="1.2" fill="none">
    <path d="M1460 120l54-28 52 28v104l-52 28-54-28z"/>
    <path d="M1500 92v156"/>
    <path d="M1512 110l34 18"/>
    <path d="M1512 134l34 18"/>
    <path d="M1512 158l34 18"/>
  </g>

  <!-- subtle frame -->
</svg>
