<svg xmlns="http://www.w3.org/2000/svg" width="720" height="180" viewBox="0 0 720 180" fill="none">
  <rect width="720" height="180" fill="none"/>
  <g opacity=".9" stroke="#B1B3B3" stroke-width="1" fill="none">
    <path d="M560 28H692V146H560z"/>
    <path d="M586 28V146M612 28V146M638 28V146M664 28V146"/>
    <path d="M560 54H692M560 80H692M560 106H692M560 132H692"/>
    <path d="M516 88H560"/>
    <path d="M536 60V116"/>
    <path d="M536 60L560 28"/>
    <path d="M536 116L560 146"/>
  </g>
  <g opacity=".6" stroke="#101820" stroke-width="1">
    <path d="M430 138H492V100H516"/>
    <path d="M456 138V92H492V60H516"/>
    <path d="M430 138V118H404V82H376V46H342"/>
  </g>
  <g fill="#D50032">
    <rect x="516" y="98" width="6" height="6" rx="1.5"/>
    <rect x="430" y="136" width="6" height="6" rx="1.5"/>
  </g>
</svg>
